<svg width="64" height="64" viewBox="0 0 64 64" fill="none" xmlns="http://www.w3.org/2000/svg">
<path d="M32.5168 55.9999C32.5168 68.1502 33.1503 28.9999 21 28.9999C8.84974 28.9999 0 68.1503 0 56C0 43.8498 0.349735 16.5 12.5 16.5C24.6503 16.5 37.0168 10.4998 32.5168 55.9999Z" fill="black"/>
<path d="M63.5 53.5C63.5 65.6503 57.1503 28.9999 45 28.9999C32.8497 28.9999 32.5168 68.1502 32.5168 55.9999C32.5168 43.8496 29.8497 16.5001 42 16.5001C54.1503 16.5001 66 8.50002 63.5 53.5Z" fill="black"/>
<path d="M30 6C30 4.34314 31.3431 3 33 3H46.5C47.0523 3 47.5 3.44772 47.5 4V5C47.5 5.55228 47.0523 6 46.5 6H35.5V8.5H46.5C47.0523 8.5 47.5 8.94772 47.5 9.5V10.5C47.5 11.0523 47.0523 11.5 46.5 11.5H35.5V33V61C35.5 62.6569 34.1569 64 32.5 64H30.4721C30.1616 64 29.8554 63.9277 29.5777 63.7889L26 62L24 60.5L23.5005 60.0005C22.9339 59.4339 22.8928 58.5286 23.4058 57.913L23.8459 57.3849C24.4219 56.6937 25.5009 56.7513 26 57.5V57.5L28 59L28.5528 59.2764C29.2177 59.6088 30 59.1253 30 58.382V6Z" fill="black"/>
</svg>
