<svg width="24" height="24" viewBox="0 0 24 24" fill="none" xmlns="http://www.w3.org/2000/svg">
<g id="Iconly/Light-Outline/Play">
<g id="Play">
<path id="Fill 1" fill-rule="evenodd" clip-rule="evenodd" d="M12.25 3.5C7.425 3.5 3.5 7.425 3.5 12.25C3.5 17.075 7.425 21 12.25 21C17.075 21 21 17.075 21 12.25C21 7.425 17.075 3.5 12.25 3.5M12.25 22.5C6.598 22.5 2 17.902 2 12.25C2 6.598 6.598 2 12.25 2C17.902 2 22.5 6.598 22.5 12.25C22.5 17.902 17.902 22.5 12.25 22.5" fill="#130F26"/>
<g id="Fill 3">
<path fill-rule="evenodd" clip-rule="evenodd" d="M9.73498 15.9002C9.46498 15.9002 9.20898 15.8232 8.99998 15.6152C8.83898 15.4562 8.40898 15.0312 8.40698 12.2322C8.40598 9.26021 8.85298 8.81821 8.99998 8.67121C9.52298 8.15321 10.421 8.51926 10.784 8.67126C11.304 8.88826 11.4072 10.8342 11.4072 12.2322C11.4072 13.5422 11.623 15.2862 10.784 15.6362C10.457 15.7722 10.084 15.9002 9.73498 15.9002Z" fill="#130F26"/>
<path fill-rule="evenodd" clip-rule="evenodd" d="M14.4509 15.8792C14.1809 15.8792 13.9249 15.8022 13.7159 15.5942C13.5549 15.4352 13.1249 15.0102 13.1229 12.2112C13.1219 9.23916 13.5689 8.79716 13.7159 8.65016C14.2389 8.13216 15.1369 8.49822 15.4999 8.65022C16.0199 8.86722 16.1231 10.8131 16.1231 12.2111C16.1231 13.5211 16.3389 15.2652 15.4999 15.6152C15.1729 15.7512 14.7999 15.8792 14.4509 15.8792Z" fill="#130F26"/>
</g>
</g>
</g>
</svg>
