<svg width="750" height="750" viewBox="0 0 750 750" fill="none" xmlns="http://www.w3.org/2000/svg">
<rect width="750" height="750" transform="matrix(-1 0 0 1 750 0)" fill="white"/>
<path fill-rule="evenodd" clip-rule="evenodd" d="M267.088 159.952C202.555 145.507 142.768 162.646 110.634 211.601C78.5001 260.555 86.9062 338.237 93.8672 372.526C100.828 406.815 118.486 438.221 140.402 465.487C181.108 516.129 236.117 554.883 297.613 575.803C359.109 596.722 425.877 601.012 489.963 590.429C525.913 584.492 638.367 555.408 662.642 467.64C686.917 379.872 702.28 304.858 649.712 274.387C597.145 243.915 560.733 266.834 534.71 278.104C413.131 330.757 331.62 174.398 267.088 159.952Z" fill="#64FCD9"/>
<path fill-rule="evenodd" clip-rule="evenodd" d="M176.216 242.16C165.864 241.361 154.706 241.878 146.27 247.931C137.834 253.984 134.002 267.275 140.929 275.01C133.098 271.948 123.893 277.141 119.97 284.578C116.047 292.016 116.253 300.927 117.433 309.252C120.356 329.87 128.761 349.686 141.554 366.118C142.142 367.85 142.73 369.582 143.318 371.314C128.197 375.213 69.1506 398.144 85.1046 454.674C101.059 511.204 170.733 532.72 177.865 539.486C190.295 551.278 209.269 552.084 226.394 551.541C268.503 550.205 310.483 544.853 351.579 535.583C355.073 534.795 359.499 534.315 361.513 537.276C376.091 558.71 406.577 560.627 432.431 558.761C465.642 556.364 498.661 551.327 531.076 543.714C549.462 539.395 568.987 533.381 580.441 518.364C593.794 500.857 592.252 476.585 590.085 454.674C598.862 459.553 613.418 462.196 633.755 462.602C645.729 460.16 653.197 455.82 656.161 449.581C669.716 421.053 674.364 384.29 657.485 356.171C655.457 352.793 653.118 349.464 649.816 347.314C646.316 345.035 642.049 344.286 637.888 343.918C621.478 342.464 604.641 346.295 590.474 354.704C590.601 308.661 590.727 262.618 590.854 216.575C590.861 213.939 590.824 211.141 589.419 208.91C587.385 205.683 583.221 204.683 579.472 203.984C545.369 197.617 510.88 193.324 476.258 191.135C464.945 190.419 449.463 193.568 449.412 204.903C449.215 248.312 449.017 291.721 448.82 335.13C448.773 345.462 448.109 344.598 443.269 341.604C446.312 341.919 445.633 336.758 443.327 334.748C434.718 327.243 422.174 326.967 410.754 327.084C385.21 327.345 359.667 327.607 334.123 327.868C309.374 328.122 279.693 331.26 268.488 353.33C268.814 346.771 262.869 340.581 256.302 340.641C249.141 340.707 243.151 334.495 241.061 327.645C238.971 320.795 239.893 313.435 240.833 306.335C252.381 295.153 255.404 276.146 247.895 261.934C240.386 247.722 222.981 239.508 207.237 242.745C197.067 244.837 186.568 242.96 176.216 242.16ZM472.613 455.093C472.953 464.232 473.313 473.494 476.002 482.235L472.613 455.093ZM483.196 342.929C480.819 343.625 477.877 345.733 479.125 347.873C468.797 348.905 471.881 348.427 471.417 336.256C470.945 323.907 470.906 310.252 478.991 300.905C486.145 292.634 497.812 290.047 508.708 289.117C521.426 288.031 534.281 288.553 546.869 290.665C553.011 291.696 559.664 293.473 563.228 298.58C565.223 301.438 565.957 304.968 566.543 308.404C568.848 321.92 569.568 335.705 568.683 349.387C542.205 337.068 511.224 334.727 483.196 342.929ZM253.404 433.664C252.757 433.011 251.776 432.852 250.865 432.726C247.226 432.226 243.587 431.725 239.949 431.225C248.299 427.453 253.361 418.494 254.873 409.456C256.385 400.419 254.908 391.179 253.417 382.138C258.759 388.083 258.374 397.052 257.674 405.013C256.143 422.438 254.051 434.318 253.404 433.664ZM322.106 519.492C321.391 517.165 318.955 515.915 317.171 514.257C313.96 511.273 312.767 506.761 311.72 502.505C308.101 487.796 304.459 472.908 304.504 457.76C304.514 454.551 304.677 451.254 303.614 448.225C302.552 445.197 299.889 442.459 296.68 442.443C293.296 442.427 292.488 437.733 292.791 434.362C293.834 422.741 294.877 411.12 295.92 399.499C296.253 395.787 296.593 392.04 297.719 388.488C301.884 375.354 317.933 367.413 330.9 372.069C332.488 372.639 332.912 374.645 333.092 376.322C335.088 394.911 337.084 413.499 339.08 432.088C339.434 435.391 335.17 437.498 331.95 436.68C328.731 435.863 326.273 433.347 323.49 431.535C320.706 429.723 316.782 428.679 314.226 430.8C311.337 433.198 307.06 430.535 304.551 427.743C302.041 424.95 298.773 421.584 295.204 422.749C299.391 426.754 303.577 430.758 307.764 434.763C309.152 436.091 310.376 438.744 308.622 439.528C303.812 437.822 299.463 434.832 296.148 430.951C294.615 430.902 294.543 433.31 295.398 434.583C298.621 439.379 306.207 440.448 308.16 445.886C312.719 458.581 326.938 467.014 340.264 464.926C342.997 464.498 344.36 468.093 344.689 470.84C346.001 481.794 347.313 492.748 348.625 503.702C348.926 506.222 349.208 508.888 348.17 511.204C346.439 515.068 341.809 516.531 337.704 517.571C332.278 518.945 326.789 520.327 321.243 520.927C318.908 521.18 318.917 520.324 322.106 519.492ZM538.281 499.409C530.528 502.005 522.322 502.885 514.191 503.749C510.743 504.115 507.071 504.444 503.978 502.877C500.337 501.032 498.397 497.035 496.831 493.266C488.098 472.247 483.112 449.677 482.178 426.935C482.045 423.703 486.182 422.277 489.409 422.06C515.171 420.331 539.809 431.655 563.141 442.715C564.259 443.245 565.456 443.849 566.008 444.957C566.42 445.782 566.399 446.749 566.368 447.671C565.95 460.235 565.423 473.249 559.804 484.494C558.286 487.531 556.356 490.454 553.623 492.468C551.968 493.688 550.073 494.535 548.194 495.372C544.933 496.824 541.666 498.275 538.281 499.409ZM371.624 452.91C368.19 434.442 365.77 415.787 364.378 397.054C363.902 390.646 363.553 384.131 364.939 377.856C366.324 371.581 369.666 365.481 375.13 362.099C378.497 360.016 382.438 359.08 386.336 358.385C393.45 357.116 400.687 356.54 407.912 356.669C414.287 356.782 420.978 357.559 426.183 361.243C427.904 362.461 429.467 364.055 430.096 366.068C430.724 368.081 430.195 370.554 428.449 371.736C424.036 374.724 422.238 380.315 421.411 385.58C420.584 390.845 420.385 396.358 417.986 401.117C416.749 403.571 414.975 405.712 413.114 407.735C403.027 418.702 389.869 426.816 375.54 430.905C373.021 431.624 369.816 433.18 370.348 435.745C362.423 440.744 371.756 453.618 371.624 452.91ZM393.464 507.378C390.546 505.605 388.568 502.655 386.826 499.718C379.437 487.259 374.591 473.298 372.673 458.939C399.253 458.819 425.675 448.79 445.64 431.243C446.324 433.985 446.193 436.856 446.1 439.68C445.517 457.316 446.563 475.004 449.221 492.448C449.855 496.606 447.371 500.764 443.956 503.219C440.541 505.675 436.334 506.73 432.204 507.525C422.893 509.319 413.378 510.054 403.902 509.713C400.299 509.583 396.546 509.251 393.464 507.378ZM225.735 355.263C227.284 351.529 228.447 347.32 231.661 344.868C234.876 342.417 240.928 343.616 241.117 347.654C237.936 347.068 235.504 350.995 236.046 354.184C236.588 357.373 238.906 359.909 240.748 362.568C243.293 366.242 245.034 370.401 246.756 374.525C250.853 384.339 252.448 395.184 251.349 405.761C250.702 411.989 248.995 418.385 244.784 423.018C240.574 427.652 233.356 429.968 227.808 427.068C223.042 424.578 220.665 419.086 219.572 413.822C218.479 408.557 218.285 403.045 216.22 398.08C212.411 388.921 203.018 383.387 193.726 379.913C207.694 378.016 220.332 368.283 225.735 355.263ZM264.361 365.171C263.74 367.572 262.88 369.912 261.798 372.143C261.148 368.999 260.105 365.936 258.701 363.048C260.121 362.885 261.552 362.808 262.981 362.817C263.328 362.819 263.695 362.832 263.988 363.018C264.649 363.436 264.557 364.414 264.361 365.171ZM432.728 362.7C433.607 363.408 434.123 364.931 433.195 365.573C431.773 364.15 430.351 362.726 428.929 361.302C429.223 360.938 429.65 360.684 430.111 360.599C430.675 361.577 431.848 361.992 432.728 362.7Z" fill="white"/>
<path d="M186.5 352.5C183.462 352.5 181 350.038 181 347C181 343.962 183.462 341.5 186.5 341.5C189.538 341.5 192 343.962 192 347C192 350.038 189.538 352.5 186.5 352.5Z" fill="#FFB61D"/>
<path d="M218 347C216.343 347 215 345.657 215 344C215 342.343 216.343 341 218 341C219.657 341 221 342.343 221 344C221 345.657 219.657 347 218 347Z" fill="#FFB61D"/>
<path fill-rule="evenodd" clip-rule="evenodd" d="M502.074 268.077C493.075 268.134 484.075 268.191 475.075 268.248C474.654 268.251 474.201 268.263 473.861 268.512C473.167 269.022 473.444 270.216 474.159 270.696C474.874 271.176 475.8 271.156 476.661 271.126C484.581 270.851 492.525 271.263 500.374 272.354C501.568 272.52 502.827 272.694 503.944 272.241C505.06 271.787 505.914 270.45 505.4 269.36C504.864 268.221 503.334 268.069 502.074 268.077ZM532.17 267.193C531.6 267.761 531.873 268.805 532.507 269.302C533.141 269.799 533.989 269.898 534.79 269.979C542.769 270.787 550.748 271.595 558.727 272.403C559.67 272.499 560.646 272.591 561.549 272.3C562.451 272.01 563.268 271.229 563.289 270.281C563.312 269.303 562.481 268.472 561.553 268.16C560.626 267.848 559.619 267.935 558.643 268.012C550.468 268.655 542.213 268.284 534.129 266.911C533.452 266.796 532.657 266.708 532.17 267.193ZM533.288 251.877C532.692 252.358 532.904 253.389 533.502 253.868C534.1 254.347 534.915 254.426 535.678 254.486L561.302 256.508C562.261 256.584 563.255 256.655 564.159 256.328C565.064 256 565.858 255.157 565.806 254.196C565.753 253.223 564.854 252.468 563.907 252.238C562.96 252.008 561.968 252.18 561.004 252.323C552.307 253.608 543.464 252.436 534.709 251.64C534.218 251.595 533.672 251.567 533.288 251.877ZM497.503 246.8C492.156 247.483 486.736 247.587 481.367 247.11C479.233 246.92 476.652 246.831 475.44 248.597C476.879 249.761 478.857 249.926 480.705 250.043C486.827 250.428 492.949 250.814 499.071 251.2C500.468 251.288 502.209 251.182 502.784 249.907C503.3 248.762 502.392 247.385 501.225 246.922C500.058 246.458 498.748 246.641 497.503 246.8ZM543.692 240.255C543.685 241.179 544.844 241.578 545.759 241.713L559.214 243.685C560.175 243.826 561.167 243.965 562.105 243.714C563.043 243.464 563.92 242.718 564.008 241.751C564.115 240.568 563.004 239.569 561.844 239.311C560.684 239.053 559.482 239.323 558.303 239.475C554.239 239.998 550.139 239.105 546.043 238.964C545.041 238.93 543.699 239.252 543.692 240.255ZM478.766 237.034C477.725 237.15 476.656 237.771 476.378 238.781C478.227 240.18 480.671 240.434 482.98 240.639C486.932 240.989 490.885 241.34 494.837 241.69C496.23 241.813 497.622 241.937 499.014 242.06C500.033 242.15 501.092 242.235 502.048 241.874C503.004 241.513 503.821 240.564 503.678 239.552C503.454 237.957 501.361 237.543 499.75 237.577C493.776 237.706 487.726 238.608 481.872 237.405C480.846 237.194 479.807 236.917 478.766 237.034ZM473.518 221.946C502.804 225.895 532.832 223.851 561.715 230.098C563.429 230.468 565.819 230.487 566.262 228.791C566.223 226.793 563.638 226.072 561.645 225.93C533.547 223.926 505.448 221.922 477.35 219.918C475.701 219.8 473.388 220.299 473.518 221.946Z" fill="#E7EAEE"/>
<path fill-rule="evenodd" clip-rule="evenodd" d="M576.538 525.528C576.232 529.071 581.116 530.272 584.673 530.286C603.156 530.359 621.62 533.787 638.898 540.354C641.535 541.356 644.357 542.618 645.64 545.13C647.34 548.456 645.485 552.713 642.479 554.93C639.472 557.146 635.635 557.822 631.948 558.422C536.121 574.026 438.868 580.866 341.8 578.829L340.24 578.795C329.045 578.536 317.619 577.934 307.363 573.502C315.854 567.551 324.344 561.6 332.835 555.649C318.137 552.714 302.972 554.805 288.057 556.277C253.92 559.647 219.457 559.716 185.307 556.483C187.711 560.324 192.997 560.857 197.527 560.955C240.485 561.88 283.495 560.353 326.279 556.386C320.697 560.06 315.115 563.733 309.533 567.407C307.51 568.738 305.272 570.428 305.155 572.846C304.98 576.481 309.446 578.295 313.036 578.888C324.95 580.857 337.07 581.17 349.144 581.347C443.443 582.725 537.859 575.978 631.003 561.204C635.548 560.483 640.257 559.678 644.047 557.067C647.836 554.457 650.42 549.493 648.828 545.175C647.244 540.881 642.424 538.864 638.073 537.443C618.162 530.94 597.438 526.927 576.538 525.528ZM449.412 204.903C449.215 248.312 449.017 291.721 448.82 335.13C448.773 345.462 446.738 358.536 436.746 361.167C422.94 354.793 407.378 352.275 392.266 353.97C383.615 354.94 374.632 357.556 368.775 363.996C360.742 372.831 360.729 386.136 361.592 398.046C363.34 422.188 366.784 446.206 371.889 469.866C367.833 469.61 363.696 471.238 360.902 474.189C365.206 476.157 370.333 476.239 374.698 474.41C371.7 490.66 384.939 506.693 400.794 511.348C416.649 516.003 433.854 511.614 448.763 504.488C450.162 509.933 442.877 513.133 437.316 513.955C423.198 516.042 409.08 518.128 394.963 520.215C412.398 520.739 429.89 519.311 447.009 515.969C450.162 520.433 443.023 524.94 437.628 525.813C423.318 528.129 409.009 530.445 394.699 532.761C410.862 532.653 427.018 531.575 443.051 529.536C432.854 538.734 418.935 543.68 405.22 542.977C412.957 545.522 421.552 545.369 429.193 542.55C419.634 555.351 400.077 557.723 385.795 550.563C371.513 543.403 362.188 528.755 357.627 513.443C353.065 498.132 352.622 481.95 351.813 465.995C350.321 436.542 347.47 407.129 342.311 378.094C338.836 358.541 330.302 335.227 310.636 332.465C345.672 330.85 380.741 329.979 415.814 329.853C426.471 329.815 439.71 331.558 443.269 341.604C446.311 341.919 445.633 336.758 443.327 334.748C434.718 327.243 422.174 326.967 410.754 327.084L334.123 327.868C309.374 328.122 279.693 331.26 268.488 353.33C268.814 346.771 262.869 340.581 256.302 340.641C249.141 340.707 243.151 334.495 241.061 327.645C238.971 320.795 239.893 313.435 240.833 306.335C252.381 295.153 255.404 276.146 247.895 261.934C245.771 257.914 242.633 248.33 225.108 242.16C213.424 238.047 201.875 238.5 190.461 243.517C169.025 239.372 154.295 240.843 146.27 247.931C134.233 258.562 134.002 267.275 140.929 275.01C133.097 271.948 123.893 277.141 119.97 284.578C116.047 292.016 116.253 300.927 117.433 309.252C120.356 329.87 128.761 349.686 141.554 366.118L143.318 371.314C112.371 379.293 87.3363 406.646 82.1229 438.176C92.4115 414.986 106.34 390.426 130.337 382.192C135.752 387.872 141.32 393.799 143.863 401.223C146.406 408.647 145.032 418.028 138.584 422.5C142.634 423.439 146.684 424.377 150.734 425.316C149.386 427.707 148.038 430.099 146.689 432.49C161.993 444.124 163.754 466.128 163.661 485.352C163.568 504.575 163.918 526.255 177.865 539.486C190.295 551.278 209.269 552.084 226.394 551.541C268.503 550.205 310.482 544.853 351.579 535.583C355.073 534.795 359.499 534.315 361.513 537.276C376.091 558.71 406.577 560.627 432.431 558.761C465.642 556.364 498.661 551.327 531.076 543.714C549.462 539.395 568.987 533.381 580.441 518.364C593.794 500.857 592.252 476.585 590.085 454.674C603.25 461.993 618.857 464.827 633.755 462.602C618.051 452.335 610.436 432.694 610.293 413.933C610.15 395.171 616.412 376.986 623.379 359.565C638.731 368.469 646.807 387.237 645.606 404.943C644.405 422.649 635.011 439.083 622.407 451.576C637.944 441.77 648.226 424.105 649.077 405.751C649.928 387.398 641.325 368.857 626.762 357.656C629.089 349.697 641.095 348.725 647.388 354.124C653.68 359.524 655.655 368.288 657.274 376.42C660.265 391.446 663.268 406.823 661.095 421.989C658.922 437.156 650.544 452.337 636.506 458.473C643.066 463.202 651.804 456.395 656.161 449.581C673.83 421.951 674.364 384.29 657.485 356.171C655.457 352.793 653.118 349.464 649.816 347.314C646.316 345.035 642.049 344.286 637.888 343.918C621.478 342.464 604.641 346.295 590.474 354.704C590.601 308.661 590.727 262.618 590.854 216.575C590.861 213.939 590.824 211.141 589.419 208.91C587.385 205.683 583.22 204.683 579.472 203.984C545.369 197.617 510.88 193.324 476.258 191.135C464.945 190.419 449.463 193.568 449.412 204.903ZM472.535 193.909C509.243 195.637 545.818 200.174 581.835 207.469C583.368 207.78 584.991 208.142 586.105 209.24C587.623 210.735 587.74 213.104 587.76 215.234C588.19 261.08 588.008 306.932 587.215 352.774C582.807 351.675 578.399 350.576 573.992 349.477C575.715 340.07 577.445 330.536 576.708 321.002C575.971 311.467 572.472 301.77 565.276 295.473C557.487 288.657 546.617 286.731 536.292 286.006C526.364 285.309 516.375 285.47 506.474 286.488C496.367 287.527 485.72 289.771 478.428 296.847C467.896 307.067 467.725 323.625 468.271 338.292C469.718 377.226 471.166 416.159 472.613 455.093C472.953 464.232 473.313 473.494 476.002 482.235C478.692 490.976 484.031 499.284 492.108 503.573C500.034 507.783 509.518 507.663 518.435 506.65C526.948 505.683 535.379 503.995 543.609 501.611C548.608 500.162 553.61 498.419 557.859 495.412C571.917 485.464 573.579 465.612 573.921 448.393C579.319 447.418 584.596 451.526 586.825 456.539C589.053 461.551 588.955 467.246 588.816 472.729C588.471 486.408 587.938 500.769 580.955 512.536C570.181 530.692 547.552 537.399 526.89 541.734C490.217 549.429 452.983 554.447 415.581 556.736C432.273 548.234 447.072 533.684 450.592 515.286C451.549 510.288 451.651 505.171 451.751 500.083C453.7 400.605 455.649 301.126 457.597 201.648C457.721 195.357 466.25 193.613 472.535 193.909ZM330.238 357.234C331.166 359.498 331.841 362.011 331.223 364.379C330.605 366.747 328.304 368.814 325.89 368.412C315.077 366.611 303.421 371.937 297.705 381.291C292.989 389.008 292.334 398.45 291.803 407.479L286.967 489.725C286.45 498.514 286.195 508.185 291.657 515.09C298.745 524.048 312.053 524.347 323.421 523.235C332.802 522.317 342.67 520.757 349.953 514.774C349.695 518.256 350.71 521.819 352.764 524.643C355.3 528.128 351.207 532.714 347.224 534.361C342.359 536.374 337.07 537.075 331.849 537.753C307.938 540.857 284.012 543.849 260.072 546.731C241.646 548.949 222.925 551.098 204.606 548.12C216.195 544.868 227.285 539.842 237.369 533.271C242.401 529.993 247.266 526.247 250.698 521.319C256.299 513.274 257.479 503.052 258.411 493.293C261.183 464.275 263.246 435.189 264.598 406.071C265.595 384.593 272.482 363.418 284.309 345.463C286.424 342.253 289.012 338.921 292.751 338.027C307.618 334.474 324.437 343.091 330.238 357.234ZM398.408 543.093C397.147 543.307 395.853 543.59 394.813 544.335C393.774 545.081 393.049 546.405 393.369 547.644C393.689 548.882 395.324 549.697 396.356 548.942C397.496 548.109 399.011 548.08 400.37 547.696C401.728 547.312 403.152 546.184 402.908 544.794C402.598 543.031 400.172 542.793 398.408 543.093ZM450.766 543.616C449.202 543.941 447.37 545.057 447.69 546.622C447.973 548.003 449.681 548.463 451.078 548.65C452.644 548.859 454.315 549.053 455.737 548.364C457.158 547.676 458.08 545.734 457.148 544.459C456.519 543.599 455.341 543.371 454.277 543.327C453.101 543.28 451.919 543.377 450.766 543.616ZM357.158 526.215C358.643 527.286 359.663 528.865 360.711 530.366C365.488 537.21 371.542 543.16 378.469 547.816C378.296 548.55 377.195 548.365 376.542 547.986C368.522 543.339 362.798 535.662 357.305 528.196C356.855 527.586 356.485 526.563 357.158 526.215ZM285.441 341.321C281.162 346.373 276.85 351.474 273.719 357.309C270.326 363.634 268.419 370.643 266.884 377.656C258.297 416.883 260.589 457.667 255.024 497.435C254.02 504.611 252.692 511.94 248.958 518.15C244.584 525.425 237.325 530.468 229.929 534.635C223.948 538.005 217.705 540.964 211.136 542.961C200.69 546.135 188.142 546.357 180.134 538.936C175.637 534.768 173.272 528.823 171.425 522.977C163.506 497.921 162.636 470.678 168.938 445.168C168.779 460.425 166.798 475.647 167.251 490.898C167.705 506.149 170.836 521.855 179.801 534.201C181.577 536.647 183.635 538.994 186.319 540.384C189.854 542.215 194.053 542.18 198.005 541.697C204.906 540.854 211.655 538.769 217.828 535.571C222.518 533.142 226.857 530.09 231.061 526.893C235.948 523.177 240.746 519.174 244.17 514.078C247.563 509.028 249.455 503.128 250.955 497.231C261.91 454.174 254.077 407.728 267.076 365.244C270.14 355.231 275.461 344.488 285.441 341.321ZM546.788 530.742C521.499 534.645 496.209 538.549 470.919 542.452C471.56 544.125 473.872 544.184 475.648 543.947C497.276 541.057 518.904 538.168 540.532 535.279C542.977 534.952 545.422 534.626 547.867 534.299C549.028 534.144 550.469 533.724 550.616 532.562C550.822 530.925 548.419 530.49 546.788 530.742ZM253.417 382.138C258.759 388.083 258.374 397.052 257.674 405.013C256.142 422.438 254.611 439.863 253.08 457.288C253.008 458.103 252.921 458.962 252.443 459.626C251.661 460.713 250.148 460.902 248.813 460.996C230.631 462.277 212.449 463.558 194.266 464.839C195.626 466.988 198.69 467.02 201.226 466.825C218.343 465.503 235.53 465.075 252.692 465.542C252.988 474.343 251.691 483.196 248.882 491.542C247.665 495.159 242.978 495.93 239.164 496.084C224.621 496.673 210.078 497.262 195.534 497.851C194.865 499.357 197.215 500.298 198.863 500.279C213.812 500.107 228.761 499.936 243.71 499.764C245.758 499.74 246.498 502.641 245.727 504.538C243.71 509.495 237.29 510.562 231.949 510.897L198.527 512.989C197.764 513.037 197.605 514.237 198.162 514.76C198.719 515.283 199.568 515.298 200.332 515.281L239.464 514.451C229.346 526.493 215.155 535.05 199.783 538.378C196.47 539.095 192.959 539.566 189.741 538.503C185.89 537.232 183.05 533.962 180.827 530.571C169.037 512.583 169.821 489.438 171.026 467.965L172.392 443.625C171.915 442.969 170.935 442.742 170.218 443.121C169.941 441.928 171.493 441.22 172.698 440.999C199.296 436.113 226.589 431.22 253.209 435.991C254.059 435.642 254.051 434.318 253.404 433.664C252.757 433.011 251.776 432.852 250.865 432.726C247.226 432.226 243.587 431.725 239.949 431.225C248.299 427.453 253.361 418.494 254.873 409.456C256.385 400.419 254.908 391.179 253.417 382.138ZM384.144 530.103C381.775 530.544 379.039 531.268 378.114 533.493C380.752 535.291 384.216 535.106 387.398 534.852C388.273 534.782 389.23 534.676 389.845 534.049C390.933 532.94 390.121 530.896 388.721 530.222C387.321 529.548 385.671 529.818 384.144 530.103ZM564.576 513.844C537.329 522.405 509.094 527.818 480.613 529.94C478.404 530.104 475.434 531.157 475.858 533.332C505.98 529.925 535.918 524.89 565.497 518.257C567.384 517.834 569.806 516.489 569.103 514.687C568.485 513.103 566.197 513.334 564.576 513.844ZM464.778 527.058C463.387 527.055 462.044 527.531 460.743 528.026C460.082 528.278 459.354 528.602 459.098 529.262C458.551 530.668 460.49 531.672 461.974 531.942C462.973 532.123 463.972 532.304 464.97 532.485C465.813 532.638 466.72 532.784 467.496 532.42C468.755 531.83 469.083 530.012 468.36 528.823C467.638 527.634 466.169 527.061 464.778 527.058ZM336.475 524.054C324.423 526.346 312.078 526.476 299.81 526.599C298.861 526.609 298.605 528.102 299.283 528.767C299.961 529.431 301.019 529.461 301.969 529.442C313.421 529.217 324.887 528.01 336.306 528.91C337.549 529.008 338.84 529.125 340.007 528.687C341.174 528.25 342.17 527.07 341.948 525.843C341.757 524.786 340.726 524.045 339.671 523.84C338.616 523.636 337.531 523.853 336.475 524.054ZM309.247 335.117C322.893 337.154 334.358 349.3 335.605 363.041C336.77 375.874 340.313 388.354 342.835 400.991C350.932 441.573 348.476 483.631 355.635 524.389C353.02 519.627 352.315 514.085 351.656 508.693L334.296 366.524C333.834 362.741 333.362 358.914 332.003 355.354C328.289 345.623 318.69 339.511 309.247 335.117ZM371.293 519.249C370.55 519.485 369.788 519.795 369.292 520.397C368.797 521 368.673 521.973 369.214 522.534C369.623 522.957 370.263 523.034 370.849 523.085C372.767 523.255 374.685 523.424 376.603 523.594C377.638 523.685 378.708 523.773 379.695 523.446C380.682 523.119 381.571 522.264 381.6 521.225C381.648 519.465 379.477 518.581 377.72 518.466C375.554 518.324 373.362 518.591 371.293 519.249ZM330.9 372.069C332.488 372.639 332.912 374.645 333.092 376.322L339.08 432.088C339.434 435.391 335.17 437.498 331.95 436.68C328.731 435.863 326.273 433.347 323.489 431.535C320.706 429.723 316.782 428.679 314.226 430.8C311.337 433.198 307.06 430.535 304.551 427.743C302.041 424.95 298.773 421.584 295.204 422.749C299.391 426.754 303.577 430.758 307.764 434.763C309.152 436.091 310.376 438.744 308.622 439.528C303.812 437.822 299.463 434.832 296.148 430.951C294.615 430.902 294.543 433.31 295.398 434.583C298.621 439.379 306.207 440.448 308.16 445.886C312.719 458.581 326.938 467.014 340.264 464.926C342.997 464.498 344.36 468.093 344.689 470.84C346.001 481.794 347.313 492.748 348.625 503.702C348.926 506.222 349.208 508.888 348.17 511.204C346.439 515.068 341.809 516.531 337.704 517.571C329.993 519.524 322.155 521.492 314.206 521.211C306.257 520.93 298.037 518.088 293.003 511.929C294.397 510.119 297.502 512.44 299.533 511.392C301.519 510.368 300.464 506.956 298.331 506.285C296.199 505.615 293.948 506.681 291.968 507.717C290.724 505.29 289.445 502.692 289.701 499.977C289.957 497.262 292.449 494.576 295.107 495.187C296.854 495.588 297.566 492.561 296.157 491.452C294.749 490.343 292.726 490.703 290.982 491.117C290.885 484.564 290.788 478.011 290.691 471.458C290.672 470.12 290.667 468.716 291.301 467.538C291.935 466.361 293.439 465.536 294.644 466.117C296.286 466.908 297.71 464.111 296.611 462.657C295.512 461.202 293.437 461.014 291.615 460.951C291.474 455.131 291.851 449.298 292.738 443.544C299.597 446.981 300.797 456.051 301.489 463.692C302.816 478.346 305.485 492.878 309.452 507.047C310.341 510.221 311.341 513.467 313.418 516.026C315.495 518.586 318.917 520.324 322.106 519.492C321.391 517.165 318.955 515.915 317.171 514.257C313.96 511.273 312.767 506.761 311.72 502.505C308.101 487.796 304.459 472.908 304.504 457.76L304.511 456.744C304.535 453.86 304.565 450.935 303.614 448.225C302.552 445.197 299.889 442.459 296.68 442.443C293.296 442.427 292.488 437.733 292.79 434.362C293.834 422.741 294.877 411.12 295.92 399.499C296.253 395.787 296.593 392.04 297.719 388.488C301.884 375.354 317.933 367.413 330.9 372.069ZM279.838 513.804C278.247 514.231 276.704 515.867 277.365 517.375C277.996 518.816 279.978 518.895 281.544 518.747C282.31 518.674 283.126 518.582 283.724 518.098C284.773 517.25 284.625 515.452 283.642 514.528C282.66 513.603 281.141 513.454 279.838 513.804ZM470.969 512.193C469.922 512.42 468.832 512.725 468.08 513.487C467.328 514.248 467.079 515.606 467.827 516.372C468.437 516.999 469.423 517.01 470.297 516.979C471.554 516.935 472.811 516.891 474.068 516.847C474.796 516.821 475.574 516.779 476.158 516.344C477.407 515.415 476.859 513.24 475.518 512.45C474.177 511.661 472.49 511.864 470.969 512.193ZM567.818 500.79C560.782 504.062 553.051 505.489 545.406 506.821C529.93 509.517 514.407 511.946 498.847 514.105C496.67 514.407 494.258 514.835 492.931 516.587C498.957 516.999 504.979 515.995 510.935 514.995C530.57 511.698 550.205 508.401 569.84 505.104C571.898 504.758 574.555 503.615 574.154 501.567C573.679 499.139 570.061 499.747 567.818 500.79ZM445.64 431.243C446.324 433.985 446.193 436.856 446.1 439.68C445.517 457.316 446.563 475.004 449.221 492.448C449.855 496.606 447.371 500.764 443.956 503.219C440.541 505.675 436.334 506.73 432.204 507.525C422.893 509.319 413.378 510.054 403.902 509.713C400.298 509.583 396.546 509.251 393.464 507.378C390.546 505.605 388.568 502.655 386.826 499.718C379.437 487.259 374.591 473.298 372.673 458.939C399.253 458.819 425.675 448.79 445.64 431.243ZM376.121 501.162C374.306 501.761 372.491 502.36 370.677 502.959C370.071 503.159 369.423 503.39 369.064 503.917C368.457 504.807 369.046 506.109 369.985 506.637C370.923 507.165 372.063 507.136 373.139 507.094C375.098 507.016 377.262 506.851 378.63 505.446C379.997 504.041 379.528 501.01 377.572 500.882C377.077 500.85 376.592 501.007 376.121 501.162ZM280.992 501.425C279.912 501.598 278.774 501.797 277.942 502.506C277.11 503.215 276.769 504.619 277.535 505.398C277.844 505.712 278.272 505.874 278.689 506.019C280.295 506.578 282.079 507.024 283.668 506.415C285.256 505.806 286.339 503.706 285.341 502.329C284.423 501.064 282.536 501.179 280.992 501.425ZM563.141 442.715C564.259 443.245 565.456 443.849 566.008 444.957C566.42 445.782 566.399 446.749 566.368 447.671C565.95 460.235 565.423 473.249 559.804 484.494C558.286 487.531 556.356 490.454 553.623 492.468C551.968 493.688 550.073 494.535 548.194 495.372C544.933 496.824 541.666 498.275 538.281 499.409C530.528 502.005 522.322 502.885 514.191 503.749C510.743 504.115 507.071 504.444 503.978 502.877C500.337 501.032 498.397 497.035 496.831 493.266C488.098 472.247 483.112 449.677 482.178 426.935C482.045 423.703 486.182 422.277 489.409 422.06C515.171 420.331 539.809 431.655 563.141 442.715ZM478.177 426.023C478.838 426.892 478.92 428.056 478.986 429.146C480.527 454.865 486.928 480.285 497.752 503.666C487.44 498.448 479.757 488.314 477.516 476.976C476.746 473.078 476.588 469.088 476.433 465.118C475.943 452.598 475.453 440.079 474.962 427.559C474.937 426.899 474.932 426.174 475.352 425.664C476.046 424.821 477.516 425.154 478.177 426.023ZM473.906 488.666C472.598 488.737 471.368 489.281 470.096 489.597C468.957 489.881 468.613 491.503 469.249 492.489C469.885 493.476 471.111 493.905 472.273 494.068C473.486 494.238 474.791 494.174 475.835 493.532C476.878 492.889 477.555 491.549 477.138 490.397C476.693 489.164 475.215 488.595 473.906 488.666ZM280.242 485.267C279.018 485.52 277.969 486.278 276.962 487.016C276.415 487.417 275.834 487.867 275.655 488.521C275.426 489.356 275.977 490.255 276.736 490.672C277.495 491.088 278.404 491.117 279.267 491.048C280.493 490.95 281.759 490.647 282.685 489.836C283.61 489.026 284.08 487.603 283.503 486.517C282.918 485.413 281.465 485.014 280.242 485.267ZM571.294 446.373C571.629 446.969 571.561 447.701 571.484 448.38L569.666 464.386C568.68 473.071 567.388 482.432 561.317 488.721C560.305 488.241 560.876 486.719 561.514 485.798C566.432 478.702 567.379 469.678 568.177 461.081C568.644 456.042 569.112 451.003 569.579 445.964C570.049 445.467 570.96 445.776 571.294 446.373ZM247.568 479.158C230.889 479.57 214.21 479.982 197.531 480.394C194.978 480.457 192.418 480.52 189.892 480.899C190.419 482.723 192.817 483.066 194.716 483.048C211.442 482.891 228.223 481.855 244.859 483.594C246.281 483.743 247.817 483.889 249.051 483.167C250.285 482.445 250.838 480.463 249.703 479.593C249.115 479.142 248.309 479.14 247.568 479.158ZM293.394 475.881C293.026 476.001 292.651 476.129 292.351 476.373C291.354 477.184 291.725 478.918 292.745 479.701C293.764 480.484 295.139 480.574 296.424 480.606C297.762 480.639 299.322 480.533 300.084 479.433C301.041 478.053 299.904 476.01 298.32 475.45C296.736 474.89 294.99 475.359 293.394 475.881ZM281.199 472.511C279.643 472.679 278.13 473.224 276.825 474.087C275.827 474.746 276.026 476.401 276.934 477.179C277.841 477.958 279.137 478.067 280.332 478.023C281.54 477.98 282.801 477.796 283.778 477.085C284.756 476.373 285.338 474.998 284.814 473.909C284.216 472.665 282.571 472.363 281.199 472.511ZM449.222 434.447C450.13 447.538 450.537 460.663 450.442 473.785C450.438 474.34 450.06 475.128 449.586 474.839C448.582 463.81 448.089 452.733 448.11 441.658C448.114 439.205 448.164 436.661 449.222 434.447ZM467.052 468.029C465.621 468.137 464.358 468.97 463.192 469.806C462.833 470.063 462.463 470.338 462.263 470.731C461.847 471.547 462.345 472.596 463.126 473.073C463.908 473.55 464.875 473.588 465.789 473.545C467.869 473.448 470.484 472.316 470.251 470.247C470.091 468.821 468.483 467.922 467.052 468.029ZM277.734 459.212C276.341 459.783 274.908 461.276 275.628 462.599C276.115 463.494 277.302 463.687 278.321 463.698C279.504 463.709 280.688 463.613 281.854 463.409C283.494 463.123 283.745 460.544 282.472 459.472C281.199 458.4 279.274 458.579 277.734 459.212ZM115.433 433.597C114.859 434.558 114.849 435.741 114.856 436.86C114.905 444.782 114.953 452.703 115.002 460.625C115.008 461.587 115.137 462.752 116.01 463.156C116.765 463.505 117.695 463.015 118.115 462.298C118.535 461.58 118.573 460.709 118.587 459.878C118.709 452.806 117.921 445.565 119.924 438.781C120.519 436.766 121.231 434.248 119.675 432.836C118.458 431.733 116.276 432.188 115.433 433.597ZM319.089 432.68C325.093 436.406 331.409 440.237 338.458 440.744C339.74 440.836 340.317 442.368 340.57 443.629C341.709 449.299 342.337 455.072 342.445 460.855C342.451 461.208 342.448 461.588 342.244 461.877C341.919 462.336 341.256 462.355 340.694 462.325C335.196 462.037 329.622 461.463 324.516 459.405C319.409 457.346 314.763 453.617 312.682 448.519C310.601 443.422 311.602 436.92 315.852 433.419C316.766 432.666 318.082 432.056 319.089 432.68ZM365.058 454.977C363.129 455.484 361.2 455.99 359.27 456.497C358.549 456.686 357.748 456.938 357.403 457.599C356.997 458.377 357.47 459.381 358.204 459.862C358.939 460.342 359.853 460.433 360.727 460.511C362.114 460.634 363.542 460.754 364.873 460.344C366.203 459.934 367.429 458.861 367.581 457.477C367.733 456.094 366.404 454.624 365.058 454.977ZM632.673 349.416C625.453 352.341 620.018 358.666 616.647 365.689C613.276 372.712 611.742 380.455 610.404 388.13C608.19 400.831 606.427 413.796 608.041 426.588C609.656 439.38 615.003 452.135 624.916 460.379C617.695 460.765 609.073 460.479 605.153 454.402C603.394 451.675 599.607 450.468 596.595 451.674C598.489 450.037 597.059 446.988 595.653 444.916C589.894 436.427 585.942 426.67 584.529 416.509C581.791 396.806 588.676 376.838 598.891 359.77C605.519 348.695 620.978 343.957 632.673 349.416ZM461.476 451.478C459.986 452.065 460.333 454.527 461.725 455.318C463.118 456.108 464.853 455.753 466.405 455.358C467.129 455.174 467.897 454.959 468.388 454.396C469.536 453.084 468.219 450.865 466.52 450.473C464.822 450.081 463.098 450.84 461.476 451.478ZM407.911 356.669C414.287 356.782 420.978 357.559 426.183 361.243C427.904 362.461 429.467 364.055 430.096 366.068C430.724 368.081 430.195 370.554 428.449 371.736C424.036 374.724 422.238 380.315 421.411 385.58C420.584 390.845 420.385 396.358 417.986 401.117C416.749 403.571 414.975 405.712 413.114 407.735C403.027 418.702 389.869 426.816 375.54 430.905C373.021 431.624 369.816 433.18 370.348 435.745C390.963 431.422 409.762 418.981 421.8 401.696C425.458 412.93 432.673 422.976 442.15 430.031C423.664 445.762 399.741 454.979 375.478 455.718C374.379 455.751 373.136 455.71 372.394 454.898C371.908 454.366 371.756 453.618 371.624 452.91C368.19 434.442 365.77 415.787 364.378 397.054C363.902 390.646 363.553 384.131 364.939 377.856C366.324 371.581 369.666 365.481 375.13 362.099C378.497 360.016 382.438 359.08 386.336 358.385C393.45 357.116 400.687 356.54 407.911 356.669ZM281.242 446.544C279.57 446.545 277.462 447.034 277.168 448.679C276.876 450.319 278.744 451.54 280.397 451.751C281.606 451.906 282.919 451.759 283.878 451.007C284.837 450.255 285.283 448.782 284.617 447.762C283.934 446.715 282.491 446.543 281.242 446.544ZM157.737 413.612C160.805 425.497 162.596 437.668 164.381 449.812C164.47 450.417 164.521 451.131 164.065 451.537C159.283 445.596 154.896 439.336 150.942 432.814C150.552 432.17 150.169 431.328 150.606 430.716C151.597 429.331 152.587 427.946 153.578 426.561C154.313 425.533 155.071 424.179 154.424 423.093C153.898 422.21 152.722 422.024 151.699 421.93L143.297 421.156C143.388 420.636 143.704 420.187 144.013 419.758C146.262 416.627 148.716 413.335 152.318 411.962C154.314 411.201 157.203 411.544 157.737 413.612ZM546.869 290.665C553.011 291.696 559.664 293.473 563.228 298.58C565.223 301.438 565.957 304.968 566.543 308.404C568.848 321.92 569.568 335.705 568.683 349.387C542.205 337.068 511.224 334.727 483.196 342.929C480.819 343.625 477.877 345.733 479.125 347.873C500.15 340.096 523.569 338.936 545.259 344.598C552.278 346.43 559.099 348.949 566.077 350.928C576.448 353.868 587.16 355.607 597.929 356.097C578.316 382.726 575.778 420.857 591.689 449.85C581.789 447.977 572.488 443.818 563.36 439.552C549.733 433.184 536.164 426.468 521.688 422.38C507.211 418.291 491.56 416.954 477.201 421.437C475.521 421.961 474.596 419.537 474.528 417.778L471.417 336.256C470.945 323.907 470.906 310.252 478.991 300.905C486.145 292.634 497.812 290.047 508.708 289.117C521.426 288.031 534.281 288.553 546.869 290.665ZM357.169 441.974C356.767 442.236 356.352 442.567 356.258 443.038C356.067 443.993 357.23 444.602 358.167 444.868C359.528 445.254 360.931 445.64 362.338 445.492C363.745 445.344 365.177 444.536 365.64 443.199C366.102 441.861 365.172 440.106 363.758 440.08C361.439 440.037 359.111 440.706 357.169 441.974ZM157.449 390.676C162.571 393.548 168.69 394.598 174.476 393.596C173.736 395.66 170.491 396.38 170.475 398.572C170.465 399.907 171.723 400.847 172.438 401.975C172.988 402.842 173.226 403.866 173.445 404.87C175.507 414.309 176.69 423.94 176.976 433.598C177.025 435.263 176.611 437.461 174.956 437.642C171.528 438.017 168.3 439.94 166.336 442.774C164.727 432.648 163.117 422.522 161.508 412.395C161.135 410.046 160.821 407.421 162.198 405.481C164.092 402.812 162.443 399.155 160.782 396.334L157.449 390.676ZM462.416 434.445C460.668 434.794 458.679 436.304 459.342 437.959C459.75 438.978 460.982 439.39 462.079 439.449C463.175 439.507 464.316 439.345 465.344 439.734C466.552 440.192 467.975 439.122 468.123 437.838C468.271 436.553 467.378 435.307 466.215 434.742C465.051 434.178 463.684 434.192 462.416 434.445ZM281.263 432.881C280.161 433.033 278.999 433.276 278.197 434.047C277.395 434.818 277.174 436.286 278.028 436.999C278.31 437.235 278.666 437.359 279.014 437.478C280.528 437.995 282.148 438.501 283.701 438.118C285.254 437.734 286.604 436.086 286.067 434.579C285.448 432.841 283.091 432.628 281.263 432.881ZM180.94 412.064C182.107 412.345 182.958 413.319 183.727 414.24L188.362 419.79C189.268 420.875 187.674 422.387 186.266 422.505C184.858 422.622 183.213 422.291 182.211 423.288C181.161 424.331 181.594 426.151 182.453 427.357C183.313 428.562 184.532 429.546 185.052 430.932C185.829 433.005 184.543 435.602 182.424 436.24C181.273 436.587 179.658 436.053 179.648 434.851C179.588 427.826 179.178 420.803 178.418 413.818C178.288 412.625 179.773 411.782 180.94 412.064ZM416.105 415.553C415.217 416.143 414.643 417.087 414.051 417.973C408.966 425.587 400.462 430.819 391.374 431.926C389.272 432.182 386.792 432.437 385.738 434.274C387.718 436.235 390.945 435.996 393.659 435.364C403.281 433.126 412.098 427.567 418.265 419.85C419.249 418.619 420.147 416.747 419.05 415.616C418.308 414.851 416.993 414.963 416.105 415.553ZM185.938 381.91C192.732 383.58 199.518 385.936 205.025 390.252C210.532 394.569 214.628 401.127 214.585 408.123C214.53 416.997 218.89 425.79 225.986 431.118L214.039 432.524C212.64 432.689 211.072 432.808 209.977 431.922C208.374 430.627 208.784 428.14 209.189 426.119C209.594 424.099 209.504 421.429 207.583 420.686C205.196 419.764 203.221 423.075 203.583 425.608C203.944 428.141 205.414 430.579 204.954 433.096C199.296 433.898 193.62 434.575 187.932 435.124C189.063 434.195 189.187 432.435 188.614 431.087C188.042 429.74 186.93 428.709 185.85 427.721C184.699 426.668 186.358 424.814 187.909 424.647C189.459 424.48 191.283 424.853 192.377 423.741C193.736 422.357 192.716 420.038 191.557 418.484C189.306 415.467 186.516 411.83 187.965 408.357C191.497 399.886 190.72 389.744 185.938 381.91ZM446.52 358.764C447.467 381.954 447.337 405.187 446.131 428.364C437.273 423.558 430.801 415.1 426.787 405.856C424.338 400.216 422.699 394 423.678 387.929C424.408 383.403 426.551 379.221 429.043 375.372C433.463 368.544 439.234 362.381 446.52 358.764ZM241.117 347.654C237.936 347.068 235.504 350.995 236.046 354.184C236.588 357.373 238.906 359.909 240.748 362.568C243.293 366.242 245.034 370.401 246.756 374.525C250.853 384.339 252.447 395.184 251.349 405.761C250.702 411.989 248.995 418.385 244.784 423.018C240.574 427.652 233.356 429.968 227.808 427.068C223.042 424.578 220.665 419.086 219.572 413.822C218.479 408.557 218.285 403.045 216.22 398.08C212.411 388.921 203.018 383.387 193.726 379.913C207.694 378.016 220.332 368.283 225.735 355.263C227.284 351.529 228.447 347.32 231.661 344.868C234.876 342.417 240.928 343.616 241.117 347.654ZM359.186 422.355C358.204 422.544 357.24 422.829 356.313 423.206C354.784 423.828 353.142 425.548 354.126 426.874C354.663 427.598 355.695 427.685 356.596 427.708C358.24 427.75 360.013 427.755 361.356 426.806C362.698 425.857 363.163 423.56 361.809 422.627C361.065 422.114 360.073 422.185 359.186 422.355ZM285.134 418.441C283.804 418.554 282.48 418.738 281.169 418.993C280.521 419.12 279.822 419.296 279.415 419.816C278.797 420.603 279.186 421.839 279.967 422.465C280.748 423.09 281.787 423.266 282.776 423.421C284.287 423.658 285.898 423.882 287.292 423.253C288.686 422.624 289.638 420.781 288.786 419.512C288.043 418.404 286.463 418.328 285.134 418.441ZM665.302 411.288C666.428 411.275 666.818 412.779 666.784 413.905C666.686 417.141 666.031 420.359 664.856 423.375C664.529 423.709 664.15 423.013 664.196 422.548L665.302 411.288ZM448.861 419.618C449.564 419.999 449.832 421.01 449.41 421.689L449.393 421.714L449.408 421.73C449.427 421.753 449.447 421.78 449.469 421.812C449.751 422.24 449.355 422.919 448.843 422.883C448.497 421.831 448.504 420.666 448.861 419.618ZM463.501 415.039C461.977 415.376 460.323 416.641 460.702 418.155C460.953 419.158 462.009 419.747 463.018 419.971C464.028 420.196 465.095 420.181 466.059 420.555C467.286 421.032 468.763 420.043 469.015 418.752C469.268 417.461 468.477 416.113 467.336 415.458C466.194 414.804 464.786 414.755 463.501 415.039ZM454.681 201.439C454.592 271.247 452.988 341.052 449.871 410.79L449.543 418.001L449.494 415.681C449.404 410.261 449.483 404.838 449.563 399.417C450.493 335.875 451.424 272.332 452.354 208.79C452.393 206.129 452.603 203.101 454.681 201.439ZM354.834 404.831C353.979 405.087 353.121 405.475 352.567 406.174C352.012 406.874 351.853 407.948 352.402 408.652C352.933 409.334 353.895 409.463 354.756 409.539L358.428 409.865C359.029 409.919 359.674 409.963 360.196 409.661C360.618 409.417 360.897 408.973 361.025 408.503C361.411 407.089 360.454 405.554 359.131 404.924C357.808 404.293 356.238 404.411 354.834 404.831ZM650.67 350.187C654.488 353.939 656.474 359.125 658.309 364.154C663.423 378.167 668.282 393.041 665.759 407.743C664.979 407.886 664.607 406.824 664.549 406.033C663.512 391.85 660.678 377.799 656.135 364.322C654.402 359.18 652.318 353.958 648.468 350.134C648.521 349.203 650.004 349.533 650.67 350.187ZM181.24 380.841C181.906 381.005 182.337 381.633 182.685 382.224C185.971 387.799 187.518 394.384 187.059 400.839C186.869 403.505 186.012 406.575 183.523 407.547C181.499 405.604 179.475 403.66 177.451 401.717C177.13 401.409 176.801 401.089 176.623 400.68C176.179 399.658 176.814 398.517 177.397 397.568C180.281 392.874 182.448 386.926 180.045 381.969C179.746 381.352 180.574 380.677 181.24 380.841ZM139.186 374.825C139.509 374.994 139.758 375.272 140 375.545C145.974 382.302 151.744 389.24 157.299 396.345C158.46 397.829 159.67 399.503 159.556 401.383C159.455 403.054 158.279 404.51 156.854 405.39C155.429 406.269 153.769 406.67 152.14 407.058C151.704 407.161 151.231 407.262 150.821 407.081C150.444 406.914 150.205 406.544 149.987 406.193C146.586 400.71 143.137 395.117 141.531 388.868C141.188 387.535 140.033 386.604 139.109 385.584C137.295 383.58 136.231 380.911 136.171 378.208C136.15 377.293 136.257 376.328 136.787 375.581C137.316 374.834 138.375 374.402 139.186 374.825ZM284.692 401.572C283.869 401.776 282.961 402.089 282.592 402.852C281.941 404.197 283.468 405.601 284.896 406.042C286.003 406.385 287.237 406.503 288.298 406.039C289.36 405.575 290.166 404.404 289.925 403.271C289.497 401.259 286.688 401.077 284.692 401.572ZM462.139 398.634C461.75 398.983 461.39 399.392 461.242 399.893C460.946 400.9 461.649 402.01 462.614 402.424C463.578 402.838 464.705 402.678 465.677 402.282C466.701 401.865 467.698 401.066 467.828 399.969C467.977 398.713 466.84 397.558 465.588 397.376C464.337 397.195 463.08 397.791 462.139 398.634ZM351.413 387.597C350.414 388.003 350.31 389.514 350.999 390.343C351.687 391.173 352.836 391.449 353.91 391.539C354.984 391.63 356.095 391.59 357.099 391.983C358.642 392.587 360.319 390.724 359.952 389.109C359.585 387.494 357.85 386.49 356.196 386.413C354.541 386.336 352.946 386.972 351.413 387.597ZM286.403 385.167C284.988 385.237 283.588 385.609 282.325 386.25C281.777 386.529 281.21 386.914 281.054 387.509C280.733 388.733 282.269 389.574 283.513 389.813C284.615 390.025 285.733 390.151 286.855 390.189C288.239 390.237 289.91 389.971 290.461 388.7C290.89 387.713 290.368 386.502 289.491 385.878C288.614 385.254 287.478 385.115 286.403 385.167ZM195.145 294.759C203.403 296.091 211.699 297.196 220.018 298.07C226.044 298.704 231.72 302.123 235.098 307.154C235.792 308.187 236.27 309.837 235.198 310.47C232.166 306.972 228.05 304.427 223.565 303.277C221.962 302.865 220.208 302.641 218.696 303.315C217.185 303.988 216.104 305.842 216.788 307.349C217.839 309.663 221.189 309.015 223.725 308.861C230.778 308.431 236.877 316.503 234.538 323.17C232.896 316.805 223.809 314.042 218.715 318.197C213.622 322.353 214.245 331.479 219.692 335.157C221.492 336.373 223.804 337.22 224.625 339.231C225.33 340.955 224.652 342.902 223.976 344.638C222.916 347.361 221.855 350.085 220.795 352.809C218.572 358.519 216.209 364.438 211.709 368.598C208.249 371.796 203.761 373.699 199.183 374.815C182.677 378.838 164.095 372.435 153.57 359.098C152.726 358.03 150.801 359.044 150.651 360.397C150.501 361.75 151.426 362.967 152.341 363.974C157.054 369.162 162.994 373.226 169.535 375.74C172.628 376.928 176.302 378.213 177.253 381.386C178.04 384.014 176.384 386.918 174.006 388.286C171.628 389.654 168.729 389.769 166.002 389.471C160.564 388.876 155.301 386.747 150.979 383.394C149.669 382.377 148.4 381.189 147.818 379.636C147.267 378.166 147.392 376.54 147.526 374.975L147.642 373.63C148.152 367.795 148.813 361.892 151.191 356.557C152.336 353.99 153.866 351.586 154.709 348.905C155.747 345.599 155.685 342.052 156.383 338.658C157.081 335.264 158.849 331.738 162.081 330.487C161.227 328.318 159.098 326.953 157.718 325.074C156.339 323.195 156.137 319.913 158.308 319.064C159.346 318.659 160.528 319.008 161.517 319.522C165.686 321.687 167.936 326.986 166.597 331.489C165.724 334.428 170.367 336.4 172.867 334.625C175.367 332.85 175.983 329.469 176.476 326.443C178.386 314.713 182.222 302.066 192.24 295.672C193.116 295.113 194.119 294.593 195.145 294.759ZM463.014 377.969C461.697 378.396 460.384 379.579 460.658 380.936C460.917 382.22 462.393 382.82 463.684 383.041C465.514 383.354 467.901 382.995 468.415 381.211C468.905 379.513 467.128 377.887 465.371 377.701C464.579 377.617 463.772 377.723 463.014 377.969ZM251.777 353.535C253.005 354.699 253.603 356.361 254.161 357.958C255.42 361.561 256.696 365.27 256.55 369.084C256.457 371.539 257.882 373.751 258.898 375.988C259.915 378.225 260.467 381.09 258.873 382.959C255.066 379.758 254.152 374.37 253.315 369.467C252.314 363.605 250.953 357.528 247.162 352.947C248.489 351.897 250.549 352.371 251.777 353.535ZM352.096 369.872C351.116 370.187 350.006 370.817 349.995 371.846C349.98 373.098 351.521 373.674 352.753 373.899C353.37 374.012 353.987 374.125 354.605 374.238C356.178 374.526 357.864 374.802 359.327 374.154C360.789 373.507 361.763 371.533 360.808 370.249C360.191 369.419 359.055 369.193 358.023 369.129C356.024 369.006 354.002 369.259 352.096 369.872ZM495.164 351.791C493.443 352.614 491.517 354.236 492.154 356.035C509.89 352.168 528.837 354.081 545.442 361.413C552.913 364.713 559.927 369.075 567.66 371.706C570.305 372.605 573.193 373.296 575.866 372.48C578.538 371.664 580.767 368.828 579.986 366.146C579.252 363.627 576.448 362.43 573.963 361.589C561.718 357.444 549.259 353.928 536.653 351.061C522.899 347.932 507.889 345.704 495.164 351.791ZM240.509 351.578C241.776 351.573 242.841 352.502 243.673 353.456C245.693 355.771 247.129 358.546 248.197 361.426C249.523 365.005 250.308 368.783 250.516 372.594C246.848 366.285 242.927 360.124 238.766 354.131C238.043 353.09 239.243 351.583 240.509 351.578ZM262.981 362.817C263.328 362.819 263.695 362.832 263.988 363.018C264.649 363.436 264.557 364.414 264.361 365.171C263.74 367.572 262.88 369.912 261.798 372.143C261.148 368.999 260.105 365.936 258.701 363.048C260.121 362.885 261.552 362.808 262.981 362.817ZM540.889 354.71C551.387 357.937 561.885 361.163 572.382 364.389C573.636 364.775 575.091 365.37 575.358 366.654C574.505 367.9 572.879 368.428 571.371 368.355C569.863 368.282 568.432 367.703 567.034 367.132C556.384 362.781 545.734 358.429 535.084 354.078C536.986 353.546 539.001 354.13 540.889 354.71ZM430.111 360.599C430.675 361.577 431.848 361.992 432.728 362.7C433.607 363.408 434.123 364.931 433.195 365.573C431.773 364.15 430.351 362.726 428.929 361.302C429.223 360.938 429.65 360.684 430.111 360.599ZM319.349 359.842C311.718 360.636 304.018 361.042 296.375 360.384C294.398 360.213 292.032 360.134 290.859 361.734C292.34 363.243 294.669 363.425 296.782 363.516C304.716 363.856 312.649 364.195 320.583 364.535C322.131 364.602 324.091 364.405 324.593 362.939C324.989 361.785 324.09 360.513 322.962 360.05C321.834 359.587 320.562 359.715 319.349 359.842ZM201.378 351.504C199.532 353.75 198.858 356.91 199.626 359.713C199.816 360.405 200.093 361.084 200.536 361.649C201.696 363.131 203.839 363.569 205.67 363.13C207.5 362.692 209.068 361.526 210.465 360.265C211.905 358.964 213.255 357.483 213.947 355.67C214.638 353.857 214.557 351.652 213.331 350.148C212.321 348.909 210.688 348.315 209.094 348.198C206.194 347.986 203.224 349.258 201.378 351.504ZM458.612 356.725C457.883 357.314 458.005 358.538 458.628 359.239C459.25 359.94 460.199 360.239 461.109 360.465C462.183 360.733 463.312 360.943 464.389 360.687C465.466 360.431 466.475 359.595 466.608 358.497C466.8 356.902 465.131 355.655 463.545 355.405C461.814 355.132 459.975 355.624 458.612 356.725ZM209.827 352.033C210.635 353.08 210.104 354.968 208.793 355.147C207.28 355.354 206.102 356.944 206.346 358.452C206.538 359.636 205.094 360.626 203.948 360.27C202.803 359.915 202.14 358.631 202.165 357.432C202.191 356.233 202.763 355.115 203.412 354.106C204.127 352.994 205.002 351.914 206.209 351.373C207.415 350.831 209.018 350.987 209.827 352.033ZM213.857 244.537C224.858 246.552 235.755 251.357 242.851 260.002C249.946 268.647 252.4 281.585 246.853 291.296C244.893 294.727 241.9 297.72 238.137 298.928C234.374 300.136 229.823 299.247 227.313 296.195C224.465 292.733 218.715 296.053 214.429 294.739C208.501 292.921 202.339 291.867 196.143 291.609C194.674 291.548 193.159 291.539 191.788 292.07C190.3 292.647 189.124 293.804 187.993 294.931C184.072 298.838 180.069 302.858 177.748 307.884C174.066 315.853 174.977 325.571 170.326 333.016C169.783 328.347 169.239 323.678 168.695 319.009C168.494 317.277 168.269 315.478 167.333 314.006C166.396 312.535 164.524 311.502 162.885 312.098C159.993 313.148 156.982 314.276 154.907 316.548C152.831 318.819 152.063 322.605 154.058 324.947C155.986 327.21 153.799 330.481 152.775 333.272C151.001 338.108 153.087 343.634 151.692 348.593C150.537 352.701 147.2 355.768 144.012 358.604C143.08 359.433 141.992 360.317 140.75 360.204C139.709 360.109 138.873 359.334 138.163 358.568C133.926 354.001 131.024 348.21 129.902 342.082C129.449 339.609 130.309 336.007 132.799 336.345C132.119 330.413 126.666 326.371 123.463 321.332C120.009 315.896 119.193 309.213 119.035 302.775C118.877 296.304 119.508 289.272 123.82 284.445C129.001 278.646 139.067 278.213 144.727 283.545C146.138 284.875 147.997 286.631 149.68 285.669C148.361 283.303 147.042 280.937 145.723 278.57C143.573 274.714 141.378 270.717 140.941 266.324C140.078 257.656 146.677 249.448 154.838 246.4C162.998 243.351 172.211 244.615 180.397 247.597C182.448 248.344 184.872 249.949 184.316 252.06C183.993 253.283 182.755 254.021 182.119 255.115C181.723 255.796 181.763 256.014 182.211 256.566C182.481 256.899 182.969 257.864 183.407 257.675C188.047 252.301 193.066 246.674 199.87 244.641C204.38 243.294 209.227 243.689 213.857 244.537ZM266.564 355.385C267.144 355.041 268.254 354.815 268.146 355.481C267.832 357.109 266.366 358.32 264.785 358.817C263.203 359.315 261.506 359.231 259.85 359.142C259.203 359.107 258.512 359.057 257.996 358.664C257.564 358.334 257.328 357.815 257.108 357.318C256.731 356.466 256.354 355.615 255.977 354.763C259.054 352.761 263.405 357.256 266.564 355.385ZM355.415 349.824C354.121 349.921 352.836 350.147 351.587 350.497C350.504 350.8 349.26 351.434 349.206 352.557C349.136 354.036 351.059 354.64 352.534 354.767C354.035 354.897 355.536 355.027 357.037 355.156C358.13 355.251 359.367 355.299 360.171 354.552C361.251 353.548 360.815 351.602 359.646 350.704C358.477 349.807 356.885 349.714 355.415 349.824ZM320.315 349.502C313.137 350.463 305.861 350.695 298.636 350.193C297.788 350.134 296.865 350.084 296.167 350.569C295.469 351.053 295.295 352.302 296.057 352.679C296.288 352.793 296.555 352.804 296.812 352.814C305.547 353.144 314.281 353.473 323.016 353.803C323.812 353.833 324.689 353.837 325.302 353.327C326.398 352.415 325.769 350.462 324.511 349.788C323.254 349.114 321.729 349.313 320.315 349.502ZM250.618 342.388C253.406 342.538 256.244 342.797 258.819 343.878C261.394 344.96 263.703 346.994 264.472 349.679C264.628 350.224 264.686 350.895 264.268 351.278C263.943 351.576 263.453 351.58 263.012 351.563C258.38 351.38 253.767 350.691 249.284 349.509C247.055 348.922 244.369 347.505 244.67 345.22C244.829 344.017 245.867 343.077 247.013 342.679C248.159 342.28 249.406 342.323 250.618 342.388ZM572.332 342.052C572.777 344.405 572.886 346.822 572.654 349.205C572.078 349.827 571.32 348.613 571.369 347.766C571.48 345.834 571.804 343.914 572.332 342.052ZM423.17 339.173C407.113 339.899 391.056 340.625 374.998 341.351C373.5 341.418 371.509 341.992 371.597 343.49C373.513 344.721 375.986 344.466 378.248 344.202C392.562 342.535 407.042 342.304 421.401 343.516C422.641 343.62 423.958 343.721 425.064 343.153C426.17 342.584 426.884 341.068 426.165 340.052C425.537 339.164 424.257 339.124 423.17 339.173ZM462.106 337.489C461.4 337.596 460.664 337.781 460.151 338.278C458.978 339.415 459.702 341.576 461.113 342.399C462.524 343.223 464.272 343.107 465.899 342.967C467.686 342.812 468.265 340.133 467.092 338.777C465.919 337.421 463.879 337.222 462.106 337.489ZM405.632 331.55C379.462 332.908 353.293 334.265 327.123 335.623C325.722 335.696 323.867 336.235 323.941 337.636C328.256 338.414 332.725 338.327 337.007 337.383L333.205 340.655C335.017 341.798 336.948 342.978 339.091 343.026C341.233 343.073 343.565 341.494 343.505 339.352C342.421 338.852 341.337 338.351 340.253 337.851C361.393 336.04 382.631 335.379 403.843 335.872C405.067 335.901 406.373 335.912 407.407 335.255C408.441 334.599 408.964 333.004 408.108 332.128C407.496 331.502 406.506 331.505 405.632 331.55ZM236.181 335.05C237.124 335.101 237.924 335.727 238.655 336.325C239.521 337.034 240.388 337.743 241.254 338.452C242.162 339.195 243.145 340.081 243.198 341.253C243.227 341.889 242.743 342.643 242.123 342.5C241.95 342.46 241.8 342.356 241.655 342.253C239.591 340.797 237.527 339.342 235.463 337.886C235.042 337.589 234.592 337.253 234.456 336.756C234.206 335.845 235.238 334.998 236.181 335.05ZM204.079 327.425C203.997 329.547 205.051 331.537 205.426 333.628C205.801 335.719 205.087 338.381 203.02 338.871C202.41 339.015 202.233 339.888 202.577 340.411C202.922 340.935 203.572 341.161 204.189 341.273C206.104 341.621 208.372 341.006 209.252 339.27C209.693 338.4 209.727 337.389 209.752 336.415C209.819 333.807 209.886 331.199 209.953 328.59C209.999 326.807 209.799 324.611 208.167 323.892C206.223 323.034 204.161 325.302 204.079 327.425ZM232.546 339.257C232.923 339.433 233.18 339.84 233.176 340.257L233.27 340.281C233.061 340.746 232.307 340.819 232.013 340.402C231.718 339.986 232.037 339.3 232.546 339.257ZM236.156 325.625C237.022 325.647 237.99 325.804 238.502 326.502C239.049 327.249 238.828 328.345 238.266 329.081C237.703 329.817 236.875 330.291 236.102 330.801C232.846 332.948 230.246 336.077 228.731 339.671C227.7 338.315 226.67 336.959 225.64 335.602C224.87 334.589 224.059 333.431 224.221 332.169C224.338 331.258 224.95 330.491 225.6 329.842C228.354 327.087 232.262 325.525 236.156 325.625ZM568.057 304.641C569.267 304.74 569.895 306.099 570.275 307.252C570.855 309.009 571.434 310.767 572.014 312.524C572.648 314.443 573.286 316.384 573.459 318.398C573.574 319.733 573.483 321.076 573.392 322.412C573.107 326.586 572.823 330.76 572.538 334.934C572.483 335.741 571.869 336.855 571.201 336.398C571.479 325.737 570.419 315.041 568.057 304.641ZM225.738 319.989C226.837 320.407 228.004 321.143 228.163 322.307C228.322 323.472 226.607 324.553 225.942 323.584C225.093 322.347 222.971 322.993 222.27 324.319C221.568 325.645 221.774 327.24 221.784 328.74C221.795 330.241 221.45 331.962 220.142 332.697C219.923 330.69 219.703 328.683 219.484 326.676C219.213 324.198 219.229 321.125 221.407 319.913C222.71 319.187 224.344 319.458 225.738 319.989ZM190.461 318.855C188.678 318.934 186.774 319.556 185.799 321.051C184.823 322.546 185.341 324.994 187.059 325.476C189.512 326.163 191.805 322.707 194.203 323.565C195.702 324.102 196.628 326.21 198.192 325.908C199.161 325.72 199.698 324.559 199.505 323.59C199.312 322.621 198.589 321.846 197.815 321.233C195.752 319.598 193.09 318.738 190.461 318.855ZM463.52 317.09C461.801 317.367 460.118 319.249 461.024 320.736C461.278 321.154 461.692 321.45 462.125 321.678C463.196 322.242 464.519 322.434 465.626 321.942C466.733 321.45 467.511 320.173 467.212 318.999C466.835 317.524 465.022 316.847 463.52 317.09ZM187.665 307.303C186.482 308.428 185.561 310.546 186.885 311.501C188.286 312.51 189.964 310.806 191.304 309.717C192.802 308.501 194.831 307.964 196.735 308.281C197.952 308.483 199.099 309.012 200.32 309.189C201.541 309.367 202.962 309.086 203.628 308.048C204.327 306.958 203.883 305.416 202.921 304.55C201.96 303.683 200.624 303.366 199.335 303.248C195.107 302.861 190.742 304.378 187.665 307.303ZM463.579 303.856C462.524 304.475 461.955 305.934 462.542 307.007C463.319 308.426 465.353 308.406 466.922 308.016C467.487 307.876 468.082 307.691 468.456 307.245C469.349 306.18 468.348 304.509 467.101 303.894C466.004 303.353 464.635 303.237 463.579 303.856Z" fill="#00160A"/>
<path fill-rule="evenodd" clip-rule="evenodd" d="M605.248 446.484C605.104 446.885 604.971 447.333 605.136 447.725C605.431 448.429 606.395 448.457 607.159 448.45C612.53 448.407 617.523 453.021 617.905 458.379C617.945 458.945 618.723 459.204 619.226 458.942C619.73 458.68 619.989 458.114 620.163 457.573C621.144 454.529 620.512 451.116 618.947 448.326C617.383 445.535 614.962 443.31 612.333 441.488C611.312 440.782 610.042 440.103 608.888 440.559C608.125 440.861 607.627 441.588 607.212 442.295C606.43 443.627 605.772 445.031 605.248 446.484ZM608.368 445.875C608.841 444.428 610.759 443.909 612.193 444.42C613.626 444.931 614.671 446.149 615.646 447.317C616.571 448.425 617.538 449.633 617.647 451.071C615.176 448.454 611.891 446.614 608.368 445.875Z" fill="#FFB61D"/>
</svg>
